<?xml version="1.0" encoding="UTF-8"?>
<svg version="1.1" xmlns="http://www.w3.org/2000/svg" width="967" height="169">
<path d="M0,0 L6,0 L6,23 L5,79 L5,166 L-34,166 L-50,139 L-67,111 L-86,79 L-96,63 L-100,56 L-102,55 L-101,130 L-101,166 L-133,166 L-133,146 L-132,112 L-133,36 L-133,1 L-95,1 L-89,10 L-72,38 L-53,70 L-40,91 L-28,111 L-26,112 L-27,72 L-27,2 Z " fill="#9A5CE4" transform="translate(133,0)"/>
<path d="M0,0 L43,0 L51,17 L62,34 L75,54 L76,55 L88,36 L101,16 L109,0 L147,0 L140,12 L124,37 L110,59 L98,78 L100,83 L115,107 L131,133 L147,159 L150,165 L107,165 L99,148 L89,133 L75,111 L73,108 L65,119 L44,151 L37,165 L0,165 L2,160 L15,140 L26,123 L37,106 L48,89 L51,83 L35,57 L23,38 L11,19 L0,1 Z " fill="#9B5CE4" transform="translate(294,1)"/>
<path d="M0,0 L106,0 L107,2 L106,20 L105,29 L81,29 L35,28 L35,67 L90,67 L92,69 L91,87 L90,96 L34,96 L35,137 L87,136 L105,136 L106,138 L106,149 L104,165 L0,165 L0,145 L1,111 L0,47 Z " fill="#9A5CE4" transform="translate(178,1)"/>
<path d="M0,0 L35,0 L42,10 L56,32 L69,52 L85,77 L86,80 L88,80 L87,2 L88,1 L103,0 L118,0 L118,19 L117,69 L117,130 L81,130 L71,115 L55,90 L42,70 L31,53 L30,51 L30,130 L0,130 Z " fill="#9A5CE4" transform="translate(698,36)"/>
<path d="M0,0 L15,0 L31,3 L41,7 L52,15 L60,25 L66,38 L69,53 L69,77 L65,95 L57,111 L49,120 L39,127 L27,132 L10,135 L-4,135 L-20,132 L-32,127 L-42,119 L-49,110 L-54,100 L-58,84 L-58,54 L-54,38 L-48,26 L-40,16 L-27,7 L-13,2 Z M0,27 L-9,29 L-15,33 L-20,39 L-23,48 L-24,54 L-24,78 L-22,90 L-18,99 L-14,104 L-5,108 L0,109 L11,109 L22,106 L29,100 L33,91 L35,78 L35,63 L33,48 L28,36 L21,30 L16,28 L10,27 Z " fill="#9B5CE4" transform="translate(898,34)"/>
<path d="M0,0 L119,0 L120,2 L119,24 L118,29 L102,29 L77,28 L77,165 L41,165 L42,135 L42,28 L16,29 L0,29 L-2,27 L-1,8 Z " fill="#9B5CE5" transform="translate(447,1)"/>
<path d="M0,0 L34,0 L33,57 L33,130 L0,130 Z " fill="#9A5CE4" transform="translate(626,36)"/>
<path d="M0,0 L10,0 L18,4 L22,11 L23,19 L21,28 L15,35 L10,37 L-2,37 L-10,33 L-13,28 L-14,24 L-14,14 L-10,6 L-6,2 Z " fill="#9B5CE4" transform="translate(574,131)"/>
</svg>
